<mxfile host="Electron" agent="Mozilla/5.0 (Windows NT 10.0; Win64; x64) AppleWebKit/537.36 (KHTML, like Gecko) draw.io/24.7.17 Chrome/128.0.6613.36 Electron/32.0.1 Safari/537.36" version="24.7.17">
  <diagram name="Страница — 1" id="zQajhwrX7569VJFvxx6w">
    <mxGraphModel dx="750" dy="512" grid="1" gridSize="10" guides="1" tooltips="1" connect="1" arrows="1" fold="1" page="1" pageScale="1" pageWidth="827" pageHeight="1169" math="0" shadow="0">
      <root>
        <mxCell id="0" />
        <mxCell id="1" parent="0" />
        <mxCell id="fKHJMdHPd0xirBgh8rd3-3" style="edgeStyle=orthogonalEdgeStyle;rounded=0;orthogonalLoop=1;jettySize=auto;html=1;entryX=0.5;entryY=0;entryDx=0;entryDy=0;" edge="1" parent="1" source="fKHJMdHPd0xirBgh8rd3-1" target="fKHJMdHPd0xirBgh8rd3-2">
          <mxGeometry relative="1" as="geometry" />
        </mxCell>
        <mxCell id="fKHJMdHPd0xirBgh8rd3-1" value="Начало" style="ellipse;whiteSpace=wrap;html=1;" vertex="1" parent="1">
          <mxGeometry x="230" y="10" width="100" height="60" as="geometry" />
        </mxCell>
        <mxCell id="fKHJMdHPd0xirBgh8rd3-24" style="edgeStyle=orthogonalEdgeStyle;rounded=0;orthogonalLoop=1;jettySize=auto;html=1;entryX=0.5;entryY=0;entryDx=0;entryDy=0;" edge="1" parent="1" source="fKHJMdHPd0xirBgh8rd3-2" target="fKHJMdHPd0xirBgh8rd3-11">
          <mxGeometry relative="1" as="geometry" />
        </mxCell>
        <mxCell id="fKHJMdHPd0xirBgh8rd3-2" value="int main()" style="shape=process;whiteSpace=wrap;html=1;backgroundOutline=1;" vertex="1" parent="1">
          <mxGeometry x="235" y="150" width="90" height="20" as="geometry" />
        </mxCell>
        <mxCell id="fKHJMdHPd0xirBgh8rd3-4" value="" style="endArrow=none;dashed=1;html=1;rounded=0;" edge="1" parent="1">
          <mxGeometry width="50" height="50" relative="1" as="geometry">
            <mxPoint x="280" y="100" as="sourcePoint" />
            <mxPoint x="400" y="100" as="targetPoint" />
          </mxGeometry>
        </mxCell>
        <mxCell id="fKHJMdHPd0xirBgh8rd3-5" value="" style="endArrow=none;html=1;rounded=0;" edge="1" parent="1">
          <mxGeometry width="50" height="50" relative="1" as="geometry">
            <mxPoint x="400" y="490" as="sourcePoint" />
            <mxPoint x="400" y="40" as="targetPoint" />
          </mxGeometry>
        </mxCell>
        <mxCell id="fKHJMdHPd0xirBgh8rd3-6" value="" style="endArrow=none;html=1;rounded=0;" edge="1" parent="1">
          <mxGeometry width="50" height="50" relative="1" as="geometry">
            <mxPoint x="400" y="40" as="sourcePoint" />
            <mxPoint x="520" y="40" as="targetPoint" />
          </mxGeometry>
        </mxCell>
        <mxCell id="fKHJMdHPd0xirBgh8rd3-7" value="&lt;div&gt;#include &amp;lt;iostream&amp;gt;&lt;/div&gt;&lt;div&gt;#include &amp;lt;clocale&amp;gt;&lt;/div&gt;&lt;div&gt;using namespace std;&lt;/div&gt;" style="text;html=1;align=center;verticalAlign=middle;whiteSpace=wrap;rounded=0;" vertex="1" parent="1">
          <mxGeometry x="400" y="40" width="140" height="70" as="geometry" />
        </mxCell>
        <mxCell id="fKHJMdHPd0xirBgh8rd3-16" style="edgeStyle=orthogonalEdgeStyle;rounded=0;orthogonalLoop=1;jettySize=auto;html=1;entryX=0.5;entryY=0;entryDx=0;entryDy=0;" edge="1" parent="1" source="fKHJMdHPd0xirBgh8rd3-8" target="fKHJMdHPd0xirBgh8rd3-9">
          <mxGeometry relative="1" as="geometry" />
        </mxCell>
        <mxCell id="fKHJMdHPd0xirBgh8rd3-8" value="void han_town(int n, int st, int fin, int temp)" style="shape=process;whiteSpace=wrap;html=1;backgroundOutline=1;" vertex="1" parent="1">
          <mxGeometry x="414" y="120" width="310" height="20" as="geometry" />
        </mxCell>
        <mxCell id="fKHJMdHPd0xirBgh8rd3-17" style="edgeStyle=orthogonalEdgeStyle;rounded=0;orthogonalLoop=1;jettySize=auto;html=1;entryX=0.5;entryY=0;entryDx=0;entryDy=0;" edge="1" parent="1" source="fKHJMdHPd0xirBgh8rd3-9">
          <mxGeometry relative="1" as="geometry">
            <mxPoint x="504" y="250" as="targetPoint" />
            <Array as="points">
              <mxPoint x="504" y="210" />
            </Array>
          </mxGeometry>
        </mxCell>
        <mxCell id="fKHJMdHPd0xirBgh8rd3-41" style="edgeStyle=orthogonalEdgeStyle;rounded=0;orthogonalLoop=1;jettySize=auto;html=1;" edge="1" parent="1" source="fKHJMdHPd0xirBgh8rd3-9">
          <mxGeometry relative="1" as="geometry">
            <mxPoint x="640" y="400" as="targetPoint" />
            <Array as="points">
              <mxPoint x="720" y="210" />
            </Array>
          </mxGeometry>
        </mxCell>
        <mxCell id="fKHJMdHPd0xirBgh8rd3-9" value="if (n &amp;gt; 0)" style="rhombus;whiteSpace=wrap;html=1;" vertex="1" parent="1">
          <mxGeometry x="580" y="180" width="100" height="60" as="geometry" />
        </mxCell>
        <mxCell id="fKHJMdHPd0xirBgh8rd3-25" style="edgeStyle=orthogonalEdgeStyle;rounded=0;orthogonalLoop=1;jettySize=auto;html=1;entryX=0.5;entryY=0;entryDx=0;entryDy=0;" edge="1" parent="1" source="fKHJMdHPd0xirBgh8rd3-11" target="fKHJMdHPd0xirBgh8rd3-20">
          <mxGeometry relative="1" as="geometry" />
        </mxCell>
        <mxCell id="fKHJMdHPd0xirBgh8rd3-11" value="int n, start, finish = 0;" style="rounded=0;whiteSpace=wrap;html=1;" vertex="1" parent="1">
          <mxGeometry x="220" y="200" width="120" height="20" as="geometry" />
        </mxCell>
        <mxCell id="fKHJMdHPd0xirBgh8rd3-12" value="cout &amp;lt;&amp;lt; st &amp;lt;&amp;lt; &quot; =&amp;gt; &quot; &amp;lt;&amp;lt; fin &amp;lt;&amp;lt; &#39;\n&#39;;" style="shape=parallelogram;perimeter=parallelogramPerimeter;whiteSpace=wrap;html=1;fixedSize=1;" vertex="1" parent="1">
          <mxGeometry x="414" y="300" width="220" height="20" as="geometry" />
        </mxCell>
        <mxCell id="fKHJMdHPd0xirBgh8rd3-13" value="{" style="text;html=1;align=center;verticalAlign=middle;whiteSpace=wrap;rounded=0;" vertex="1" parent="1">
          <mxGeometry x="235" y="170" width="30" height="30" as="geometry" />
        </mxCell>
        <mxCell id="fKHJMdHPd0xirBgh8rd3-14" value="}" style="text;html=1;align=center;verticalAlign=middle;whiteSpace=wrap;rounded=0;" vertex="1" parent="1">
          <mxGeometry x="325" y="455" width="25" height="30" as="geometry" />
        </mxCell>
        <mxCell id="fKHJMdHPd0xirBgh8rd3-15" value="{" style="text;html=1;align=center;verticalAlign=middle;whiteSpace=wrap;rounded=0;" vertex="1" parent="1">
          <mxGeometry x="414" y="140" width="30" height="30" as="geometry" />
        </mxCell>
        <mxCell id="fKHJMdHPd0xirBgh8rd3-19" style="edgeStyle=orthogonalEdgeStyle;rounded=0;orthogonalLoop=1;jettySize=auto;html=1;entryX=0.41;entryY=-0.04;entryDx=0;entryDy=0;entryPerimeter=0;" edge="1" parent="1" target="fKHJMdHPd0xirBgh8rd3-12">
          <mxGeometry relative="1" as="geometry">
            <mxPoint x="504" y="270" as="sourcePoint" />
          </mxGeometry>
        </mxCell>
        <mxCell id="fKHJMdHPd0xirBgh8rd3-20" value="setlocale(0, &quot;rus&quot;);" style="rounded=0;whiteSpace=wrap;html=1;" vertex="1" parent="1">
          <mxGeometry x="227.5" y="250" width="105" height="20" as="geometry" />
        </mxCell>
        <mxCell id="fKHJMdHPd0xirBgh8rd3-28" style="edgeStyle=orthogonalEdgeStyle;rounded=0;orthogonalLoop=1;jettySize=auto;html=1;entryX=0.5;entryY=0;entryDx=0;entryDy=0;" edge="1" parent="1" source="fKHJMdHPd0xirBgh8rd3-21">
          <mxGeometry relative="1" as="geometry">
            <mxPoint x="280" y="400" as="targetPoint" />
          </mxGeometry>
        </mxCell>
        <mxCell id="fKHJMdHPd0xirBgh8rd3-21" value="cin &amp;gt;&amp;gt; n;" style="rounded=0;whiteSpace=wrap;html=1;" vertex="1" parent="1">
          <mxGeometry x="250" y="350" width="60" height="20" as="geometry" />
        </mxCell>
        <mxCell id="fKHJMdHPd0xirBgh8rd3-27" style="edgeStyle=orthogonalEdgeStyle;rounded=0;orthogonalLoop=1;jettySize=auto;html=1;entryX=0.5;entryY=0;entryDx=0;entryDy=0;" edge="1" parent="1" source="fKHJMdHPd0xirBgh8rd3-22" target="fKHJMdHPd0xirBgh8rd3-21">
          <mxGeometry relative="1" as="geometry" />
        </mxCell>
        <mxCell id="fKHJMdHPd0xirBgh8rd3-22" value="cout &amp;lt;&amp;lt; &quot;Введите число дисков: &quot;;" style="rounded=0;whiteSpace=wrap;html=1;" vertex="1" parent="1">
          <mxGeometry x="182.5" y="300" width="195" height="20" as="geometry" />
        </mxCell>
        <mxCell id="fKHJMdHPd0xirBgh8rd3-30" style="edgeStyle=orthogonalEdgeStyle;rounded=0;orthogonalLoop=1;jettySize=auto;html=1;entryX=0.5;entryY=0;entryDx=0;entryDy=0;" edge="1" parent="1" target="fKHJMdHPd0xirBgh8rd3-29">
          <mxGeometry relative="1" as="geometry">
            <mxPoint x="280" y="420" as="sourcePoint" />
          </mxGeometry>
        </mxCell>
        <mxCell id="fKHJMdHPd0xirBgh8rd3-26" style="edgeStyle=orthogonalEdgeStyle;rounded=0;orthogonalLoop=1;jettySize=auto;html=1;entryX=0.493;entryY=-0.16;entryDx=0;entryDy=0;entryPerimeter=0;" edge="1" parent="1" source="fKHJMdHPd0xirBgh8rd3-20" target="fKHJMdHPd0xirBgh8rd3-22">
          <mxGeometry relative="1" as="geometry" />
        </mxCell>
        <mxCell id="fKHJMdHPd0xirBgh8rd3-29" value="return 0;" style="ellipse;whiteSpace=wrap;html=1;" vertex="1" parent="1">
          <mxGeometry x="245" y="450" width="70" height="40" as="geometry" />
        </mxCell>
        <mxCell id="fKHJMdHPd0xirBgh8rd3-31" value="{" style="text;html=1;align=center;verticalAlign=middle;whiteSpace=wrap;rounded=0;" vertex="1" parent="1">
          <mxGeometry x="470" y="210" width="30" height="30" as="geometry" />
        </mxCell>
        <mxCell id="fKHJMdHPd0xirBgh8rd3-32" value="1" style="text;html=1;align=center;verticalAlign=middle;whiteSpace=wrap;rounded=0;" vertex="1" parent="1">
          <mxGeometry x="530" y="180" width="30" height="20" as="geometry" />
        </mxCell>
        <mxCell id="fKHJMdHPd0xirBgh8rd3-34" value="0" style="text;html=1;align=center;verticalAlign=middle;whiteSpace=wrap;rounded=0;" vertex="1" parent="1">
          <mxGeometry x="680" y="180" width="30" height="20" as="geometry" />
        </mxCell>
        <mxCell id="fKHJMdHPd0xirBgh8rd3-36" value="han_town(n, 1, 3, 2);" style="shape=process;whiteSpace=wrap;html=1;backgroundOutline=1;" vertex="1" parent="1">
          <mxGeometry x="210" y="400" width="150" height="20" as="geometry" />
        </mxCell>
        <mxCell id="fKHJMdHPd0xirBgh8rd3-37" value="han_town(n - 1, st, temp, fin);" style="shape=process;whiteSpace=wrap;html=1;backgroundOutline=1;" vertex="1" parent="1">
          <mxGeometry x="414" y="250" width="210" height="20" as="geometry" />
        </mxCell>
        <mxCell id="fKHJMdHPd0xirBgh8rd3-40" style="edgeStyle=orthogonalEdgeStyle;rounded=0;orthogonalLoop=1;jettySize=auto;html=1;" edge="1" parent="1" source="fKHJMdHPd0xirBgh8rd3-38">
          <mxGeometry relative="1" as="geometry">
            <mxPoint x="640" y="400" as="targetPoint" />
            <Array as="points">
              <mxPoint x="529" y="400" />
              <mxPoint x="630" y="400" />
            </Array>
          </mxGeometry>
        </mxCell>
        <mxCell id="fKHJMdHPd0xirBgh8rd3-38" value="han_town(n - 1, temp, fin, st);" style="shape=process;whiteSpace=wrap;html=1;backgroundOutline=1;" vertex="1" parent="1">
          <mxGeometry x="414" y="350" width="230" height="20" as="geometry" />
        </mxCell>
        <mxCell id="fKHJMdHPd0xirBgh8rd3-39" style="edgeStyle=orthogonalEdgeStyle;rounded=0;orthogonalLoop=1;jettySize=auto;html=1;entryX=0.476;entryY=0.014;entryDx=0;entryDy=0;entryPerimeter=0;" edge="1" parent="1" source="fKHJMdHPd0xirBgh8rd3-12" target="fKHJMdHPd0xirBgh8rd3-38">
          <mxGeometry relative="1" as="geometry" />
        </mxCell>
        <mxCell id="fKHJMdHPd0xirBgh8rd3-42" value="}" style="text;html=1;align=center;verticalAlign=middle;whiteSpace=wrap;rounded=0;" vertex="1" parent="1">
          <mxGeometry x="530" y="370" width="25" height="30" as="geometry" />
        </mxCell>
        <mxCell id="fKHJMdHPd0xirBgh8rd3-43" value="return 0;" style="ellipse;whiteSpace=wrap;html=1;" vertex="1" parent="1">
          <mxGeometry x="605" y="440" width="70" height="40" as="geometry" />
        </mxCell>
        <mxCell id="fKHJMdHPd0xirBgh8rd3-44" value="}" style="text;html=1;align=center;verticalAlign=middle;whiteSpace=wrap;rounded=0;" vertex="1" parent="1">
          <mxGeometry x="670" y="445" width="25" height="30" as="geometry" />
        </mxCell>
        <mxCell id="fKHJMdHPd0xirBgh8rd3-45" value="" style="endArrow=classic;html=1;rounded=0;" edge="1" parent="1">
          <mxGeometry width="50" height="50" relative="1" as="geometry">
            <mxPoint x="640" y="400" as="sourcePoint" />
            <mxPoint x="640" y="440" as="targetPoint" />
          </mxGeometry>
        </mxCell>
        <mxCell id="fKHJMdHPd0xirBgh8rd3-46" value="}" style="text;html=1;align=center;verticalAlign=middle;whiteSpace=wrap;rounded=0;" vertex="1" parent="1">
          <mxGeometry x="655" y="410" width="25" height="30" as="geometry" />
        </mxCell>
        <mxCell id="fKHJMdHPd0xirBgh8rd3-47" value="" style="endArrow=none;dashed=1;html=1;dashPattern=1 3;strokeWidth=2;rounded=0;" edge="1" parent="1">
          <mxGeometry width="50" height="50" relative="1" as="geometry">
            <mxPoint x="650" y="430" as="sourcePoint" />
            <mxPoint x="650" y="410" as="targetPoint" />
          </mxGeometry>
        </mxCell>
        <mxCell id="fKHJMdHPd0xirBgh8rd3-48" value="" style="endArrow=none;html=1;rounded=0;" edge="1" parent="1">
          <mxGeometry width="50" height="50" relative="1" as="geometry">
            <mxPoint x="400" y="490" as="sourcePoint" />
            <mxPoint x="720" y="490" as="targetPoint" />
          </mxGeometry>
        </mxCell>
      </root>
    </mxGraphModel>
  </diagram>
</mxfile>
